# xmcd
#
# Track frame offsets: 
#        150
#        12776
#        30194
#        43739
#        61741
#        76487
#        89869
#        106001
#        119521
#        130173
#        146060
#        158142
#
# Disc length: 2284 seconds
#
# Revision: 0
# Processed by: cddbd v1.5.2PL0 Copyright (c) Steve Scherf et al.
# Submitted via: ExactAudioCopy v1.3
#
DISCID=9608ea0c
DTITLE=Big Joe Maher and The Dynaflows - Mignight Rambler
DYEAR=2018
DGENRE=Blues
TTITLE0=Route 66
TTITLE1=Sweet Home Chicago
TTITLE2=Cross Road Blues
TTITLE3=Mignight Rambler
TTITLE4=Statesboro Blues
TTITLE5=Froggy Bottom
TTITLE6=Blue Monday Blues
TTITLE7=Let's Go Jumpin'
TTITLE8=Beehive Boogie
TTITLE9=Juice On The Loose
TTITLE10=Gangster Of Love
TTITLE11=Let The Love Begin
EXTD=
EXTT0=
EXTT1=
EXTT2=
EXTT3=
EXTT4=
EXTT5=
EXTT6=
EXTT7=
EXTT8=
EXTT9=
EXTT10=
EXTT11=
PLAYORDER=
